<mxfile host="app.diagrams.net" agent="Mozilla/5.0 (Windows NT 10.0; Win64; x64) AppleWebKit/537.36 (KHTML, like Gecko) Chrome/131.0.0.0 Safari/537.36" version="24.9.0">
  <diagram name="Page-1" id="nfMgembpazXMz0VEnoj4">
    <mxGraphModel dx="2100" dy="2283" grid="1" gridSize="10" guides="1" tooltips="1" connect="1" arrows="1" fold="1" page="1" pageScale="1" pageWidth="827" pageHeight="1169" math="0" shadow="0">
      <root>
        <mxCell id="0" />
        <mxCell id="1" parent="0" />
        <mxCell id="l-Un0ipi48CfvVv5jZcX-5" value="" style="verticalLabelPosition=bottom;html=1;verticalAlign=top;align=center;strokeColor=none;fillColor=#00BEF2;shape=mxgraph.azure.user;" parent="1" vertex="1">
          <mxGeometry x="50" y="200" width="47.5" height="50" as="geometry" />
        </mxCell>
        <mxCell id="l-Un0ipi48CfvVv5jZcX-6" value="" style="verticalLabelPosition=bottom;html=1;verticalAlign=top;align=center;strokeColor=none;fillColor=#00BEF2;shape=mxgraph.azure.user;" parent="1" vertex="1">
          <mxGeometry x="50" y="310" width="47.5" height="50" as="geometry" />
        </mxCell>
        <mxCell id="l-Un0ipi48CfvVv5jZcX-7" value="" style="verticalLabelPosition=bottom;html=1;verticalAlign=top;align=center;strokeColor=none;fillColor=#00BEF2;shape=mxgraph.azure.user;" parent="1" vertex="1">
          <mxGeometry x="50" y="420" width="47.5" height="50" as="geometry" />
        </mxCell>
        <mxCell id="l-Un0ipi48CfvVv5jZcX-9" value="" style="verticalLabelPosition=bottom;html=1;verticalAlign=top;align=center;strokeColor=none;fillColor=#00BEF2;shape=mxgraph.azure.virtual_machine_feature;pointerEvents=1;" parent="1" vertex="1">
          <mxGeometry x="209" y="260" width="50" height="45" as="geometry" />
        </mxCell>
        <mxCell id="l-Un0ipi48CfvVv5jZcX-10" value="" style="html=1;verticalLabelPosition=bottom;align=center;labelBackgroundColor=#ffffff;verticalAlign=top;strokeWidth=2;strokeColor=#0080F0;shadow=0;dashed=0;shape=mxgraph.ios7.icons.smartphone;" parent="1" vertex="1">
          <mxGeometry x="217" y="427.5" width="34" height="50" as="geometry" />
        </mxCell>
        <mxCell id="l-Un0ipi48CfvVv5jZcX-17" value="" style="shape=curlyBracket;whiteSpace=wrap;html=1;rounded=1;labelPosition=left;verticalLabelPosition=middle;align=right;verticalAlign=middle;" parent="1" vertex="1">
          <mxGeometry x="179" y="260" width="20" height="180" as="geometry" />
        </mxCell>
        <mxCell id="l-Un0ipi48CfvVv5jZcX-21" value="Reac Web App" style="text;strokeColor=none;fillColor=none;align=center;verticalAlign=top;spacingLeft=4;spacingRight=4;overflow=hidden;rotatable=0;points=[[0,0.5],[1,0.5]];portConstraint=eastwest;whiteSpace=wrap;html=1;" parent="1" vertex="1">
          <mxGeometry x="201.5" y="307.5" width="65" height="46" as="geometry" />
        </mxCell>
        <mxCell id="l-Un0ipi48CfvVv5jZcX-22" value="ReactNative Mobile App" style="text;strokeColor=none;fillColor=none;align=center;verticalAlign=top;spacingLeft=4;spacingRight=4;overflow=hidden;rotatable=0;points=[[0,0.5],[1,0.5]];portConstraint=eastwest;whiteSpace=wrap;html=1;" parent="1" vertex="1">
          <mxGeometry x="199" y="477.5" width="80" height="46" as="geometry" />
        </mxCell>
        <mxCell id="l-Un0ipi48CfvVv5jZcX-23" value="user1" style="text;strokeColor=none;fillColor=none;align=left;verticalAlign=top;spacingLeft=4;spacingRight=4;overflow=hidden;rotatable=0;points=[[0,0.5],[1,0.5]];portConstraint=eastwest;whiteSpace=wrap;html=1;" parent="1" vertex="1">
          <mxGeometry x="50" y="260" width="60" height="26" as="geometry" />
        </mxCell>
        <mxCell id="l-Un0ipi48CfvVv5jZcX-24" value="User2" style="text;strokeColor=none;fillColor=none;align=left;verticalAlign=top;spacingLeft=4;spacingRight=4;overflow=hidden;rotatable=0;points=[[0,0.5],[1,0.5]];portConstraint=eastwest;whiteSpace=wrap;html=1;" parent="1" vertex="1">
          <mxGeometry x="50" y="370" width="60" height="26" as="geometry" />
        </mxCell>
        <mxCell id="l-Un0ipi48CfvVv5jZcX-25" value="User3" style="text;strokeColor=none;fillColor=none;align=left;verticalAlign=top;spacingLeft=4;spacingRight=4;overflow=hidden;rotatable=0;points=[[0,0.5],[1,0.5]];portConstraint=eastwest;whiteSpace=wrap;html=1;" parent="1" vertex="1">
          <mxGeometry x="50" y="477.5" width="60" height="26" as="geometry" />
        </mxCell>
        <mxCell id="l-Un0ipi48CfvVv5jZcX-30" value="" style="shape=curlyBracket;whiteSpace=wrap;html=1;rounded=1;flipH=1;labelPosition=right;verticalLabelPosition=middle;align=left;verticalAlign=middle;" parent="1" vertex="1">
          <mxGeometry x="279" y="290" width="20" height="120" as="geometry" />
        </mxCell>
        <mxCell id="l-Un0ipi48CfvVv5jZcX-85" value="Docker" style="swimlane;whiteSpace=wrap;html=1;" parent="1" vertex="1">
          <mxGeometry x="450" y="-100" width="1080" height="1820" as="geometry" />
        </mxCell>
        <mxCell id="l-Un0ipi48CfvVv5jZcX-107" value="Reporting Docker Container" style="swimlane;" parent="l-Un0ipi48CfvVv5jZcX-85" vertex="1">
          <mxGeometry x="475" y="1490" width="230" height="190" as="geometry" />
        </mxCell>
        <mxCell id="l-Un0ipi48CfvVv5jZcX-32" value="Ledger Service Docker Container" style="swimlane;" parent="l-Un0ipi48CfvVv5jZcX-85" vertex="1">
          <mxGeometry x="470" y="100" width="210" height="190" as="geometry" />
        </mxCell>
        <mxCell id="l-Un0ipi48CfvVv5jZcX-35" value="Ledger Database Docker Container" style="swimlane;" parent="l-Un0ipi48CfvVv5jZcX-85" vertex="1">
          <mxGeometry x="800" y="100" width="240" height="190" as="geometry">
            <mxRectangle x="810" y="-30" width="230" height="30" as="alternateBounds" />
          </mxGeometry>
        </mxCell>
        <mxCell id="l-Un0ipi48CfvVv5jZcX-37" value="Ledger Database" style="text;html=1;align=center;verticalAlign=middle;whiteSpace=wrap;rounded=0;" parent="l-Un0ipi48CfvVv5jZcX-35" vertex="1">
          <mxGeometry x="65" y="143.45" width="80" height="30" as="geometry" />
        </mxCell>
        <mxCell id="l-Un0ipi48CfvVv5jZcX-38" value="" style="image;aspect=fixed;perimeter=ellipsePerimeter;html=1;align=center;shadow=0;dashed=0;spacingTop=3;image=img/lib/active_directory/database.svg;" parent="l-Un0ipi48CfvVv5jZcX-35" vertex="1">
          <mxGeometry x="65" y="60" width="81.08" height="60" as="geometry" />
        </mxCell>
        <mxCell id="l-Un0ipi48CfvVv5jZcX-39" value="" style="endArrow=classic;startArrow=classic;html=1;rounded=0;" parent="l-Un0ipi48CfvVv5jZcX-85" edge="1">
          <mxGeometry width="50" height="50" relative="1" as="geometry">
            <mxPoint x="690" y="194.75" as="sourcePoint" />
            <mxPoint x="760" y="194.37" as="targetPoint" />
          </mxGeometry>
        </mxCell>
        <mxCell id="l-Un0ipi48CfvVv5jZcX-49" value="Bank Service Docker Container" style="swimlane;" parent="l-Un0ipi48CfvVv5jZcX-85" vertex="1">
          <mxGeometry x="470" y="340" width="230" height="190" as="geometry" />
        </mxCell>
        <mxCell id="l-Un0ipi48CfvVv5jZcX-52" value="Bank Database Docker Container" style="swimlane;" parent="l-Un0ipi48CfvVv5jZcX-85" vertex="1">
          <mxGeometry x="800" y="335" width="250" height="190" as="geometry">
            <mxRectangle x="810" y="-30" width="230" height="30" as="alternateBounds" />
          </mxGeometry>
        </mxCell>
        <mxCell id="l-Un0ipi48CfvVv5jZcX-53" value="Bank&amp;nbsp;&lt;div&gt;Database&lt;/div&gt;" style="text;html=1;align=center;verticalAlign=middle;whiteSpace=wrap;rounded=0;" parent="l-Un0ipi48CfvVv5jZcX-52" vertex="1">
          <mxGeometry x="85" y="135" width="80" height="30" as="geometry" />
        </mxCell>
        <mxCell id="l-Un0ipi48CfvVv5jZcX-54" value="" style="image;aspect=fixed;perimeter=ellipsePerimeter;html=1;align=center;shadow=0;dashed=0;spacingTop=3;image=img/lib/active_directory/database.svg;" parent="l-Un0ipi48CfvVv5jZcX-52" vertex="1">
          <mxGeometry x="84.46000000000001" y="60" width="81.08" height="60" as="geometry" />
        </mxCell>
        <mxCell id="l-Un0ipi48CfvVv5jZcX-55" value="" style="endArrow=classic;startArrow=classic;html=1;rounded=0;" parent="l-Un0ipi48CfvVv5jZcX-85" edge="1">
          <mxGeometry width="50" height="50" relative="1" as="geometry">
            <mxPoint x="710" y="434.75" as="sourcePoint" />
            <mxPoint x="780" y="434.37" as="targetPoint" />
          </mxGeometry>
        </mxCell>
        <mxCell id="l-Un0ipi48CfvVv5jZcX-67" value="TransactionService Docker Container" style="swimlane;" parent="l-Un0ipi48CfvVv5jZcX-85" vertex="1">
          <mxGeometry x="470" y="575" width="230" height="190" as="geometry" />
        </mxCell>
        <mxCell id="l-Un0ipi48CfvVv5jZcX-73" value="" style="endArrow=classic;startArrow=classic;html=1;rounded=0;" parent="l-Un0ipi48CfvVv5jZcX-85" edge="1">
          <mxGeometry width="50" height="50" relative="1" as="geometry">
            <mxPoint x="710" y="669.75" as="sourcePoint" />
            <mxPoint x="780" y="669.37" as="targetPoint" />
          </mxGeometry>
        </mxCell>
        <mxCell id="l-Un0ipi48CfvVv5jZcX-70" value="Transaction Database Docker Container" style="swimlane;" parent="l-Un0ipi48CfvVv5jZcX-85" vertex="1">
          <mxGeometry x="800" y="570" width="250" height="190" as="geometry">
            <mxRectangle x="810" y="-30" width="230" height="30" as="alternateBounds" />
          </mxGeometry>
        </mxCell>
        <mxCell id="l-Un0ipi48CfvVv5jZcX-71" value="Transaction&amp;nbsp;&lt;div&gt;Database&lt;/div&gt;" style="text;html=1;align=center;verticalAlign=middle;whiteSpace=wrap;rounded=0;" parent="l-Un0ipi48CfvVv5jZcX-70" vertex="1">
          <mxGeometry x="85" y="135" width="80" height="30" as="geometry" />
        </mxCell>
        <mxCell id="l-Un0ipi48CfvVv5jZcX-72" value="" style="image;aspect=fixed;perimeter=ellipsePerimeter;html=1;align=center;shadow=0;dashed=0;spacingTop=3;image=img/lib/active_directory/database.svg;" parent="l-Un0ipi48CfvVv5jZcX-70" vertex="1">
          <mxGeometry x="84.46000000000001" y="60" width="81.08" height="60" as="geometry" />
        </mxCell>
        <mxCell id="l-Un0ipi48CfvVv5jZcX-75" value="Tax Docker Container" style="swimlane;" parent="l-Un0ipi48CfvVv5jZcX-85" vertex="1">
          <mxGeometry x="470" y="799" width="230" height="190" as="geometry" />
        </mxCell>
        <mxCell id="l-Un0ipi48CfvVv5jZcX-78" value="Tax Database Docker Container" style="swimlane;" parent="l-Un0ipi48CfvVv5jZcX-85" vertex="1">
          <mxGeometry x="800" y="794" width="250" height="190" as="geometry">
            <mxRectangle x="810" y="-30" width="230" height="30" as="alternateBounds" />
          </mxGeometry>
        </mxCell>
        <mxCell id="l-Un0ipi48CfvVv5jZcX-79" value="Tax&amp;nbsp;&lt;div&gt;Database&lt;/div&gt;" style="text;html=1;align=center;verticalAlign=middle;whiteSpace=wrap;rounded=0;" parent="l-Un0ipi48CfvVv5jZcX-78" vertex="1">
          <mxGeometry x="85" y="135" width="80" height="30" as="geometry" />
        </mxCell>
        <mxCell id="l-Un0ipi48CfvVv5jZcX-80" value="" style="image;aspect=fixed;perimeter=ellipsePerimeter;html=1;align=center;shadow=0;dashed=0;spacingTop=3;image=img/lib/active_directory/database.svg;" parent="l-Un0ipi48CfvVv5jZcX-78" vertex="1">
          <mxGeometry x="84.46000000000001" y="60" width="81.08" height="60" as="geometry" />
        </mxCell>
        <mxCell id="l-Un0ipi48CfvVv5jZcX-81" value="" style="endArrow=classic;startArrow=classic;html=1;rounded=0;" parent="l-Un0ipi48CfvVv5jZcX-85" edge="1">
          <mxGeometry width="50" height="50" relative="1" as="geometry">
            <mxPoint x="710" y="893.75" as="sourcePoint" />
            <mxPoint x="780" y="893.37" as="targetPoint" />
          </mxGeometry>
        </mxCell>
        <mxCell id="l-Un0ipi48CfvVv5jZcX-93" value="Payroll Docker Container" style="swimlane;" parent="l-Un0ipi48CfvVv5jZcX-85" vertex="1">
          <mxGeometry x="470" y="1020" width="230" height="190" as="geometry" />
        </mxCell>
        <mxCell id="l-Un0ipi48CfvVv5jZcX-94" value="" style="shadow=0;dashed=0;html=1;strokeColor=none;fillColor=#EF8F21;labelPosition=center;verticalLabelPosition=bottom;verticalAlign=top;align=center;outlineConnect=0;shape=mxgraph.veeam.2d.restful_apis;" parent="l-Un0ipi48CfvVv5jZcX-93" vertex="1">
          <mxGeometry x="20" y="40" width="65" height="70" as="geometry" />
        </mxCell>
        <mxCell id="l-Un0ipi48CfvVv5jZcX-95" value="Payroll Rest Service" style="text;html=1;align=center;verticalAlign=middle;whiteSpace=wrap;rounded=0;" parent="l-Un0ipi48CfvVv5jZcX-93" vertex="1">
          <mxGeometry x="12.5" y="130" width="80" height="30" as="geometry" />
        </mxCell>
        <mxCell id="l-Un0ipi48CfvVv5jZcX-139" value="" style="shape=mxgraph.sap.icon;labelPosition=center;verticalLabelPosition=bottom;align=center;verticalAlign=top;strokeWidth=1;strokeColor=#D5DADD;fillColor=#EDEFF0;gradientColor=#FCFCFC;gradientDirection=west;aspect=fixed;SAPIcon=SAP_Job_Scheduling_service" parent="l-Un0ipi48CfvVv5jZcX-93" vertex="1">
          <mxGeometry x="150" y="40" width="60" height="60" as="geometry" />
        </mxCell>
        <mxCell id="l-Un0ipi48CfvVv5jZcX-140" value="Hangfire Background Jobs" style="text;html=1;align=center;verticalAlign=middle;whiteSpace=wrap;rounded=0;" parent="l-Un0ipi48CfvVv5jZcX-93" vertex="1">
          <mxGeometry x="150" y="130" width="60" height="30" as="geometry" />
        </mxCell>
        <mxCell id="l-Un0ipi48CfvVv5jZcX-96" value="Payroll Database Docker Container" style="swimlane;" parent="l-Un0ipi48CfvVv5jZcX-85" vertex="1">
          <mxGeometry x="790" y="1020" width="250" height="190" as="geometry">
            <mxRectangle x="810" y="-30" width="230" height="30" as="alternateBounds" />
          </mxGeometry>
        </mxCell>
        <mxCell id="l-Un0ipi48CfvVv5jZcX-97" value="Payroll&amp;nbsp;&lt;div&gt;Database&lt;/div&gt;" style="text;html=1;align=center;verticalAlign=middle;whiteSpace=wrap;rounded=0;" parent="l-Un0ipi48CfvVv5jZcX-96" vertex="1">
          <mxGeometry x="85" y="135" width="80" height="30" as="geometry" />
        </mxCell>
        <mxCell id="l-Un0ipi48CfvVv5jZcX-98" value="" style="image;aspect=fixed;perimeter=ellipsePerimeter;html=1;align=center;shadow=0;dashed=0;spacingTop=3;image=img/lib/active_directory/database.svg;" parent="l-Un0ipi48CfvVv5jZcX-96" vertex="1">
          <mxGeometry x="84.46000000000001" y="60" width="81.08" height="60" as="geometry" />
        </mxCell>
        <mxCell id="l-Un0ipi48CfvVv5jZcX-99" value="" style="endArrow=classic;startArrow=classic;html=1;rounded=0;" parent="l-Un0ipi48CfvVv5jZcX-85" edge="1">
          <mxGeometry width="50" height="50" relative="1" as="geometry">
            <mxPoint x="700" y="1119.75" as="sourcePoint" />
            <mxPoint x="770" y="1119.37" as="targetPoint" />
          </mxGeometry>
        </mxCell>
        <mxCell id="l-Un0ipi48CfvVv5jZcX-100" value="Inventory Docker Container" style="swimlane;" parent="l-Un0ipi48CfvVv5jZcX-85" vertex="1">
          <mxGeometry x="470" y="1250" width="230" height="190" as="geometry" />
        </mxCell>
        <mxCell id="l-Un0ipi48CfvVv5jZcX-101" value="" style="shadow=0;dashed=0;html=1;strokeColor=none;fillColor=#EF8F21;labelPosition=center;verticalLabelPosition=bottom;verticalAlign=top;align=center;outlineConnect=0;shape=mxgraph.veeam.2d.restful_apis;" parent="l-Un0ipi48CfvVv5jZcX-100" vertex="1">
          <mxGeometry x="20" y="49" width="65" height="70" as="geometry" />
        </mxCell>
        <mxCell id="l-Un0ipi48CfvVv5jZcX-102" value="Inventory Rest Service" style="text;html=1;align=center;verticalAlign=middle;whiteSpace=wrap;rounded=0;" parent="l-Un0ipi48CfvVv5jZcX-100" vertex="1">
          <mxGeometry x="12.5" y="140" width="80" height="30" as="geometry" />
        </mxCell>
        <mxCell id="l-Un0ipi48CfvVv5jZcX-141" value="" style="shape=mxgraph.sap.icon;labelPosition=center;verticalLabelPosition=bottom;align=center;verticalAlign=top;strokeWidth=1;strokeColor=#D5DADD;fillColor=#EDEFF0;gradientColor=#FCFCFC;gradientDirection=west;aspect=fixed;SAPIcon=SAP_Job_Scheduling_service" parent="l-Un0ipi48CfvVv5jZcX-100" vertex="1">
          <mxGeometry x="150" y="49" width="60" height="60" as="geometry" />
        </mxCell>
        <mxCell id="l-Un0ipi48CfvVv5jZcX-142" value="Hangfire Background Jobs" style="text;html=1;align=center;verticalAlign=middle;whiteSpace=wrap;rounded=0;" parent="l-Un0ipi48CfvVv5jZcX-100" vertex="1">
          <mxGeometry x="150" y="140" width="60" height="30" as="geometry" />
        </mxCell>
        <mxCell id="l-Un0ipi48CfvVv5jZcX-103" value="Inventory Database Docker Container" style="swimlane;" parent="l-Un0ipi48CfvVv5jZcX-85" vertex="1">
          <mxGeometry x="790" y="1250" width="250" height="190" as="geometry">
            <mxRectangle x="810" y="-30" width="230" height="30" as="alternateBounds" />
          </mxGeometry>
        </mxCell>
        <mxCell id="l-Un0ipi48CfvVv5jZcX-104" value="Inventory&amp;nbsp;&lt;div&gt;Database&lt;/div&gt;" style="text;html=1;align=center;verticalAlign=middle;whiteSpace=wrap;rounded=0;" parent="l-Un0ipi48CfvVv5jZcX-103" vertex="1">
          <mxGeometry x="85" y="135" width="80" height="30" as="geometry" />
        </mxCell>
        <mxCell id="l-Un0ipi48CfvVv5jZcX-105" value="" style="image;aspect=fixed;perimeter=ellipsePerimeter;html=1;align=center;shadow=0;dashed=0;spacingTop=3;image=img/lib/active_directory/database.svg;" parent="l-Un0ipi48CfvVv5jZcX-103" vertex="1">
          <mxGeometry x="84.46000000000001" y="60" width="81.08" height="60" as="geometry" />
        </mxCell>
        <mxCell id="l-Un0ipi48CfvVv5jZcX-106" value="" style="endArrow=classic;startArrow=classic;html=1;rounded=0;" parent="l-Un0ipi48CfvVv5jZcX-85" edge="1">
          <mxGeometry width="50" height="50" relative="1" as="geometry">
            <mxPoint x="700" y="1349.75" as="sourcePoint" />
            <mxPoint x="770" y="1349.37" as="targetPoint" />
          </mxGeometry>
        </mxCell>
        <mxCell id="l-Un0ipi48CfvVv5jZcX-108" value="" style="shadow=0;dashed=0;html=1;strokeColor=none;fillColor=#EF8F21;labelPosition=center;verticalLabelPosition=bottom;verticalAlign=top;align=center;outlineConnect=0;shape=mxgraph.veeam.2d.restful_apis;" parent="l-Un0ipi48CfvVv5jZcX-85" vertex="1">
          <mxGeometry x="490" y="1530" width="60" height="70" as="geometry" />
        </mxCell>
        <mxCell id="l-Un0ipi48CfvVv5jZcX-109" value="reporting Rest Service" style="text;html=1;align=center;verticalAlign=middle;whiteSpace=wrap;rounded=0;" parent="l-Un0ipi48CfvVv5jZcX-85" vertex="1">
          <mxGeometry x="480" y="1620" width="80" height="30" as="geometry" />
        </mxCell>
        <mxCell id="l-Un0ipi48CfvVv5jZcX-143" value="" style="shape=mxgraph.sap.icon;labelPosition=center;verticalLabelPosition=bottom;align=center;verticalAlign=top;strokeWidth=1;strokeColor=#D5DADD;fillColor=#EDEFF0;gradientColor=#FCFCFC;gradientDirection=west;aspect=fixed;SAPIcon=SAP_Job_Scheduling_service" parent="l-Un0ipi48CfvVv5jZcX-85" vertex="1">
          <mxGeometry x="620" y="1530" width="60" height="60" as="geometry" />
        </mxCell>
        <mxCell id="l-Un0ipi48CfvVv5jZcX-144" value="Hangfire Background Jobs" style="text;html=1;align=center;verticalAlign=middle;whiteSpace=wrap;rounded=0;" parent="l-Un0ipi48CfvVv5jZcX-85" vertex="1">
          <mxGeometry x="620" y="1620" width="60" height="30" as="geometry" />
        </mxCell>
        <mxCell id="l-Un0ipi48CfvVv5jZcX-110" value="Reporting Database Docker Container" style="swimlane;" parent="l-Un0ipi48CfvVv5jZcX-85" vertex="1">
          <mxGeometry x="790" y="1480" width="250" height="190" as="geometry">
            <mxRectangle x="810" y="-30" width="230" height="30" as="alternateBounds" />
          </mxGeometry>
        </mxCell>
        <mxCell id="l-Un0ipi48CfvVv5jZcX-111" value="&lt;div&gt;Reporting Database&lt;/div&gt;" style="text;html=1;align=center;verticalAlign=middle;whiteSpace=wrap;rounded=0;" parent="l-Un0ipi48CfvVv5jZcX-110" vertex="1">
          <mxGeometry x="85" y="135" width="80" height="30" as="geometry" />
        </mxCell>
        <mxCell id="l-Un0ipi48CfvVv5jZcX-112" value="" style="image;aspect=fixed;perimeter=ellipsePerimeter;html=1;align=center;shadow=0;dashed=0;spacingTop=3;image=img/lib/active_directory/database.svg;" parent="l-Un0ipi48CfvVv5jZcX-110" vertex="1">
          <mxGeometry x="84.46000000000001" y="60" width="81.08" height="60" as="geometry" />
        </mxCell>
        <mxCell id="l-Un0ipi48CfvVv5jZcX-113" value="" style="endArrow=classic;startArrow=classic;html=1;rounded=0;" parent="l-Un0ipi48CfvVv5jZcX-85" edge="1">
          <mxGeometry width="50" height="50" relative="1" as="geometry">
            <mxPoint x="700" y="1579.75" as="sourcePoint" />
            <mxPoint x="770" y="1579.37" as="targetPoint" />
            <Array as="points">
              <mxPoint x="750" y="1579" />
            </Array>
          </mxGeometry>
        </mxCell>
        <mxCell id="l-Un0ipi48CfvVv5jZcX-118" value="" style="endArrow=classic;startArrow=classic;html=1;rounded=0;" parent="l-Un0ipi48CfvVv5jZcX-85" edge="1">
          <mxGeometry width="50" height="50" relative="1" as="geometry">
            <mxPoint x="550" y="300.38" as="sourcePoint" />
            <mxPoint x="550" y="340" as="targetPoint" />
          </mxGeometry>
        </mxCell>
        <mxCell id="l-Un0ipi48CfvVv5jZcX-119" value="" style="endArrow=classic;startArrow=classic;html=1;rounded=0;" parent="l-Un0ipi48CfvVv5jZcX-85" edge="1">
          <mxGeometry width="50" height="50" relative="1" as="geometry">
            <mxPoint x="550" y="530" as="sourcePoint" />
            <mxPoint x="550" y="569.62" as="targetPoint" />
          </mxGeometry>
        </mxCell>
        <mxCell id="l-Un0ipi48CfvVv5jZcX-120" value="" style="endArrow=classic;startArrow=classic;html=1;rounded=0;" parent="l-Un0ipi48CfvVv5jZcX-85" edge="1">
          <mxGeometry width="50" height="50" relative="1" as="geometry">
            <mxPoint x="560" y="770" as="sourcePoint" />
            <mxPoint x="560" y="800" as="targetPoint" />
          </mxGeometry>
        </mxCell>
        <mxCell id="l-Un0ipi48CfvVv5jZcX-121" value="" style="endArrow=classic;startArrow=classic;html=1;rounded=0;" parent="l-Un0ipi48CfvVv5jZcX-85" edge="1">
          <mxGeometry width="50" height="50" relative="1" as="geometry">
            <mxPoint x="560" y="990" as="sourcePoint" />
            <mxPoint x="560" y="1020" as="targetPoint" />
          </mxGeometry>
        </mxCell>
        <mxCell id="l-Un0ipi48CfvVv5jZcX-122" value="" style="endArrow=classic;startArrow=classic;html=1;rounded=0;" parent="l-Un0ipi48CfvVv5jZcX-85" edge="1">
          <mxGeometry width="50" height="50" relative="1" as="geometry">
            <mxPoint x="574.63" y="1215.38" as="sourcePoint" />
            <mxPoint x="574.63" y="1255" as="targetPoint" />
          </mxGeometry>
        </mxCell>
        <mxCell id="l-Un0ipi48CfvVv5jZcX-123" value="" style="endArrow=classic;startArrow=classic;html=1;rounded=0;" parent="l-Un0ipi48CfvVv5jZcX-85" edge="1">
          <mxGeometry width="50" height="50" relative="1" as="geometry">
            <mxPoint x="574.63" y="1445" as="sourcePoint" />
            <mxPoint x="574.63" y="1484.62" as="targetPoint" />
          </mxGeometry>
        </mxCell>
        <mxCell id="l-Un0ipi48CfvVv5jZcX-125" value="RabitMQ Msg" style="text;html=1;align=center;verticalAlign=middle;whiteSpace=wrap;rounded=0;" parent="l-Un0ipi48CfvVv5jZcX-85" vertex="1">
          <mxGeometry x="560" y="300" width="60" height="30" as="geometry" />
        </mxCell>
        <mxCell id="l-Un0ipi48CfvVv5jZcX-126" value="RabitMQ Msg" style="text;html=1;align=center;verticalAlign=middle;whiteSpace=wrap;rounded=0;" parent="l-Un0ipi48CfvVv5jZcX-85" vertex="1">
          <mxGeometry x="560" y="540" width="60" height="30" as="geometry" />
        </mxCell>
        <mxCell id="l-Un0ipi48CfvVv5jZcX-127" value="RabitMQ Msg" style="text;html=1;align=center;verticalAlign=middle;whiteSpace=wrap;rounded=0;" parent="l-Un0ipi48CfvVv5jZcX-85" vertex="1">
          <mxGeometry x="570" y="770" width="60" height="30" as="geometry" />
        </mxCell>
        <mxCell id="l-Un0ipi48CfvVv5jZcX-128" value="RabitMQ Msg" style="text;html=1;align=center;verticalAlign=middle;whiteSpace=wrap;rounded=0;" parent="l-Un0ipi48CfvVv5jZcX-85" vertex="1">
          <mxGeometry x="570" y="990" width="60" height="30" as="geometry" />
        </mxCell>
        <mxCell id="l-Un0ipi48CfvVv5jZcX-129" value="RabitMQ Msg" style="text;html=1;align=center;verticalAlign=middle;whiteSpace=wrap;rounded=0;" parent="l-Un0ipi48CfvVv5jZcX-85" vertex="1">
          <mxGeometry x="580" y="1220" width="60" height="30" as="geometry" />
        </mxCell>
        <mxCell id="l-Un0ipi48CfvVv5jZcX-130" value="RabitMQ Msg" style="text;html=1;align=center;verticalAlign=middle;whiteSpace=wrap;rounded=0;" parent="l-Un0ipi48CfvVv5jZcX-85" vertex="1">
          <mxGeometry x="580" y="1450" width="60" height="30" as="geometry" />
        </mxCell>
        <mxCell id="l-Un0ipi48CfvVv5jZcX-33" value="" style="shadow=0;dashed=0;html=1;strokeColor=none;fillColor=#EF8F21;labelPosition=center;verticalLabelPosition=bottom;verticalAlign=top;align=center;outlineConnect=0;shape=mxgraph.veeam.2d.restful_apis;" parent="l-Un0ipi48CfvVv5jZcX-85" vertex="1">
          <mxGeometry x="490" y="150" width="60" height="60" as="geometry" />
        </mxCell>
        <mxCell id="l-Un0ipi48CfvVv5jZcX-34" value="Ledger Rest Service" style="text;html=1;align=center;verticalAlign=middle;whiteSpace=wrap;rounded=0;" parent="l-Un0ipi48CfvVv5jZcX-85" vertex="1">
          <mxGeometry x="480" y="230" width="80" height="30" as="geometry" />
        </mxCell>
        <mxCell id="l-Un0ipi48CfvVv5jZcX-131" value="" style="shape=mxgraph.sap.icon;labelPosition=center;verticalLabelPosition=bottom;align=center;verticalAlign=top;strokeWidth=1;strokeColor=#D5DADD;fillColor=#EDEFF0;gradientColor=#FCFCFC;gradientDirection=west;aspect=fixed;SAPIcon=SAP_Job_Scheduling_service" parent="l-Un0ipi48CfvVv5jZcX-85" vertex="1">
          <mxGeometry x="600" y="150" width="60" height="60" as="geometry" />
        </mxCell>
        <mxCell id="l-Un0ipi48CfvVv5jZcX-132" value="Hangfire Background Jobs" style="text;html=1;align=center;verticalAlign=middle;whiteSpace=wrap;rounded=0;" parent="l-Un0ipi48CfvVv5jZcX-85" vertex="1">
          <mxGeometry x="600" y="230" width="60" height="30" as="geometry" />
        </mxCell>
        <mxCell id="l-Un0ipi48CfvVv5jZcX-50" value="" style="shadow=0;dashed=0;html=1;strokeColor=none;fillColor=#EF8F21;labelPosition=center;verticalLabelPosition=bottom;verticalAlign=top;align=center;outlineConnect=0;shape=mxgraph.veeam.2d.restful_apis;" parent="l-Un0ipi48CfvVv5jZcX-85" vertex="1">
          <mxGeometry x="495" y="380" width="65" height="70" as="geometry" />
        </mxCell>
        <mxCell id="l-Un0ipi48CfvVv5jZcX-51" value="Bank Rest Service" style="text;html=1;align=center;verticalAlign=middle;whiteSpace=wrap;rounded=0;" parent="l-Un0ipi48CfvVv5jZcX-85" vertex="1">
          <mxGeometry x="490" y="477.5" width="80" height="30" as="geometry" />
        </mxCell>
        <mxCell id="l-Un0ipi48CfvVv5jZcX-68" value="" style="shadow=0;dashed=0;html=1;strokeColor=none;fillColor=#EF8F21;labelPosition=center;verticalLabelPosition=bottom;verticalAlign=top;align=center;outlineConnect=0;shape=mxgraph.veeam.2d.restful_apis;" parent="l-Un0ipi48CfvVv5jZcX-85" vertex="1">
          <mxGeometry x="497.5" y="610" width="65" height="70" as="geometry" />
        </mxCell>
        <mxCell id="l-Un0ipi48CfvVv5jZcX-69" value="Transaction Rest Service" style="text;html=1;align=center;verticalAlign=middle;whiteSpace=wrap;rounded=0;" parent="l-Un0ipi48CfvVv5jZcX-85" vertex="1">
          <mxGeometry x="487.5" y="715" width="80" height="30" as="geometry" />
        </mxCell>
        <mxCell id="l-Un0ipi48CfvVv5jZcX-76" value="" style="shadow=0;dashed=0;html=1;strokeColor=none;fillColor=#EF8F21;labelPosition=center;verticalLabelPosition=bottom;verticalAlign=top;align=center;outlineConnect=0;shape=mxgraph.veeam.2d.restful_apis;" parent="l-Un0ipi48CfvVv5jZcX-85" vertex="1">
          <mxGeometry x="497.5" y="835" width="62.5" height="70" as="geometry" />
        </mxCell>
        <mxCell id="l-Un0ipi48CfvVv5jZcX-77" value="Tax Rest Service" style="text;html=1;align=center;verticalAlign=middle;whiteSpace=wrap;rounded=0;" parent="l-Un0ipi48CfvVv5jZcX-85" vertex="1">
          <mxGeometry x="488.75" y="930" width="80" height="30" as="geometry" />
        </mxCell>
        <mxCell id="l-Un0ipi48CfvVv5jZcX-133" value="" style="shape=mxgraph.sap.icon;labelPosition=center;verticalLabelPosition=bottom;align=center;verticalAlign=top;strokeWidth=1;strokeColor=#D5DADD;fillColor=#EDEFF0;gradientColor=#FCFCFC;gradientDirection=west;aspect=fixed;SAPIcon=SAP_Job_Scheduling_service" parent="l-Un0ipi48CfvVv5jZcX-85" vertex="1">
          <mxGeometry x="610" y="380" width="60" height="60" as="geometry" />
        </mxCell>
        <mxCell id="l-Un0ipi48CfvVv5jZcX-134" value="Hangfire Background Jobs" style="text;html=1;align=center;verticalAlign=middle;whiteSpace=wrap;rounded=0;" parent="l-Un0ipi48CfvVv5jZcX-85" vertex="1">
          <mxGeometry x="610" y="477.5" width="60" height="30" as="geometry" />
        </mxCell>
        <mxCell id="l-Un0ipi48CfvVv5jZcX-135" value="" style="shape=mxgraph.sap.icon;labelPosition=center;verticalLabelPosition=bottom;align=center;verticalAlign=top;strokeWidth=1;strokeColor=#D5DADD;fillColor=#EDEFF0;gradientColor=#FCFCFC;gradientDirection=west;aspect=fixed;SAPIcon=SAP_Job_Scheduling_service" parent="l-Un0ipi48CfvVv5jZcX-85" vertex="1">
          <mxGeometry x="620" y="610" width="60" height="60" as="geometry" />
        </mxCell>
        <mxCell id="l-Un0ipi48CfvVv5jZcX-136" value="Hangfire Background Jobs" style="text;html=1;align=center;verticalAlign=middle;whiteSpace=wrap;rounded=0;" parent="l-Un0ipi48CfvVv5jZcX-85" vertex="1">
          <mxGeometry x="620" y="715" width="60" height="30" as="geometry" />
        </mxCell>
        <mxCell id="l-Un0ipi48CfvVv5jZcX-137" value="" style="shape=mxgraph.sap.icon;labelPosition=center;verticalLabelPosition=bottom;align=center;verticalAlign=top;strokeWidth=1;strokeColor=#D5DADD;fillColor=#EDEFF0;gradientColor=#FCFCFC;gradientDirection=west;aspect=fixed;SAPIcon=SAP_Job_Scheduling_service" parent="l-Un0ipi48CfvVv5jZcX-85" vertex="1">
          <mxGeometry x="620" y="840" width="60" height="60" as="geometry" />
        </mxCell>
        <mxCell id="l-Un0ipi48CfvVv5jZcX-138" value="Hangfire Background Jobs" style="text;html=1;align=center;verticalAlign=middle;whiteSpace=wrap;rounded=0;" parent="l-Un0ipi48CfvVv5jZcX-85" vertex="1">
          <mxGeometry x="620" y="930" width="60" height="30" as="geometry" />
        </mxCell>
        <mxCell id="0ySspVsRNylLOWJ_9D-f-10" value="Auth Service Docker Container" style="swimlane;" parent="l-Un0ipi48CfvVv5jZcX-85" vertex="1">
          <mxGeometry x="50" y="340" width="210" height="190" as="geometry" />
        </mxCell>
        <mxCell id="0ySspVsRNylLOWJ_9D-f-11" value="Auth Service Database Docker Container" style="swimlane;" parent="l-Un0ipi48CfvVv5jZcX-85" vertex="1">
          <mxGeometry x="50" y="90" width="210" height="190" as="geometry">
            <mxRectangle x="810" y="-30" width="230" height="30" as="alternateBounds" />
          </mxGeometry>
        </mxCell>
        <mxCell id="0ySspVsRNylLOWJ_9D-f-12" value="Auth Database" style="text;html=1;align=center;verticalAlign=middle;whiteSpace=wrap;rounded=0;" parent="0ySspVsRNylLOWJ_9D-f-11" vertex="1">
          <mxGeometry x="65" y="143.45" width="80" height="30" as="geometry" />
        </mxCell>
        <mxCell id="0ySspVsRNylLOWJ_9D-f-13" value="" style="image;aspect=fixed;perimeter=ellipsePerimeter;html=1;align=center;shadow=0;dashed=0;spacingTop=3;image=img/lib/active_directory/database.svg;" parent="0ySspVsRNylLOWJ_9D-f-11" vertex="1">
          <mxGeometry x="65" y="60" width="81.08" height="60" as="geometry" />
        </mxCell>
        <mxCell id="0ySspVsRNylLOWJ_9D-f-14" value="" style="endArrow=classic;startArrow=classic;html=1;rounded=0;" parent="l-Un0ipi48CfvVv5jZcX-85" edge="1">
          <mxGeometry width="50" height="50" relative="1" as="geometry">
            <mxPoint x="150" y="340" as="sourcePoint" />
            <mxPoint x="150" y="280" as="targetPoint" />
          </mxGeometry>
        </mxCell>
        <mxCell id="0ySspVsRNylLOWJ_9D-f-15" value="" style="shadow=0;dashed=0;html=1;strokeColor=none;fillColor=#EF8F21;labelPosition=center;verticalLabelPosition=bottom;verticalAlign=top;align=center;outlineConnect=0;shape=mxgraph.veeam.2d.restful_apis;" parent="l-Un0ipi48CfvVv5jZcX-85" vertex="1">
          <mxGeometry x="70" y="390" width="60" height="60" as="geometry" />
        </mxCell>
        <mxCell id="0ySspVsRNylLOWJ_9D-f-16" value="Auth Rest Service" style="text;html=1;align=center;verticalAlign=middle;whiteSpace=wrap;rounded=0;" parent="l-Un0ipi48CfvVv5jZcX-85" vertex="1">
          <mxGeometry x="44" y="550" width="80" height="30" as="geometry" />
        </mxCell>
        <mxCell id="0ySspVsRNylLOWJ_9D-f-17" value="" style="shape=mxgraph.sap.icon;labelPosition=center;verticalLabelPosition=bottom;align=center;verticalAlign=top;strokeWidth=1;strokeColor=#D5DADD;fillColor=#EDEFF0;gradientColor=#FCFCFC;gradientDirection=west;aspect=fixed;SAPIcon=SAP_Job_Scheduling_service" parent="l-Un0ipi48CfvVv5jZcX-85" vertex="1">
          <mxGeometry x="180" y="390" width="60" height="60" as="geometry" />
        </mxCell>
        <mxCell id="0ySspVsRNylLOWJ_9D-f-18" value="Hangfire Background Jobs" style="text;html=1;align=center;verticalAlign=middle;whiteSpace=wrap;rounded=0;" parent="l-Un0ipi48CfvVv5jZcX-85" vertex="1">
          <mxGeometry x="164" y="550" width="60" height="30" as="geometry" />
        </mxCell>
        <mxCell id="l-Un0ipi48CfvVv5jZcX-26" value="" style="points=[];aspect=fixed;html=1;align=center;shadow=0;dashed=0;fillColor=#FF6A00;strokeColor=none;shape=mxgraph.alibaba_cloud.dg_database_gateway;" parent="l-Un0ipi48CfvVv5jZcX-85" vertex="1">
          <mxGeometry x="120" y="625.0999999999999" width="39.900000000000006" height="54.900000000000006" as="geometry" />
        </mxCell>
        <mxCell id="l-Un0ipi48CfvVv5jZcX-28" value="ApiGateway&lt;div&gt;&lt;br&gt;&lt;/div&gt;" style="text;strokeColor=none;fillColor=none;align=left;verticalAlign=top;spacingLeft=4;spacingRight=4;overflow=hidden;rotatable=0;points=[[0,0.5],[1,0.5]];portConstraint=eastwest;whiteSpace=wrap;html=1;" parent="l-Un0ipi48CfvVv5jZcX-85" vertex="1">
          <mxGeometry x="99.95000000000006" y="689" width="80.05" height="26" as="geometry" />
        </mxCell>
        <mxCell id="l-Un0ipi48CfvVv5jZcX-56" value="" style="endArrow=classic;startArrow=classic;html=1;rounded=0;entryX=0.752;entryY=-0.01;entryDx=0;entryDy=0;entryPerimeter=0;" parent="l-Un0ipi48CfvVv5jZcX-85" edge="1">
          <mxGeometry width="50" height="50" relative="1" as="geometry">
            <mxPoint x="142" y="530" as="sourcePoint" />
            <mxPoint x="142.00480000000016" y="624.5509999999999" as="targetPoint" />
          </mxGeometry>
        </mxCell>
        <mxCell id="0ySspVsRNylLOWJ_9D-f-21" value="" style="endArrow=classic;html=1;rounded=0;" parent="l-Un0ipi48CfvVv5jZcX-85" edge="1">
          <mxGeometry width="50" height="50" relative="1" as="geometry">
            <mxPoint x="180" y="660" as="sourcePoint" />
            <mxPoint x="370" y="660" as="targetPoint" />
          </mxGeometry>
        </mxCell>
        <mxCell id="0ySspVsRNylLOWJ_9D-f-23" value="" style="endArrow=classic;html=1;rounded=0;" parent="l-Un0ipi48CfvVv5jZcX-85" edge="1">
          <mxGeometry width="50" height="50" relative="1" as="geometry">
            <mxPoint x="380" y="220" as="sourcePoint" />
            <mxPoint x="475" y="220" as="targetPoint" />
          </mxGeometry>
        </mxCell>
        <mxCell id="l-Un0ipi48CfvVv5jZcX-114" value="" style="endArrow=classic;startArrow=classic;html=1;rounded=0;" parent="1" edge="1">
          <mxGeometry width="50" height="50" relative="1" as="geometry">
            <mxPoint x="309" y="353.5" as="sourcePoint" />
            <mxPoint x="480" y="354" as="targetPoint" />
          </mxGeometry>
        </mxCell>
        <mxCell id="l-Un0ipi48CfvVv5jZcX-115" value="" style="endArrow=classic;startArrow=classic;html=1;rounded=0;" parent="1" edge="1">
          <mxGeometry width="50" height="50" relative="1" as="geometry">
            <mxPoint x="119" y="349.7" as="sourcePoint" />
            <mxPoint x="169" y="350.2" as="targetPoint" />
          </mxGeometry>
        </mxCell>
        <mxCell id="l-Un0ipi48CfvVv5jZcX-116" value="" style="endArrow=classic;startArrow=classic;html=1;rounded=0;" parent="1" target="l-Un0ipi48CfvVv5jZcX-17" edge="1">
          <mxGeometry width="50" height="50" relative="1" as="geometry">
            <mxPoint x="109" y="240" as="sourcePoint" />
            <mxPoint x="169" y="286.5" as="targetPoint" />
          </mxGeometry>
        </mxCell>
        <mxCell id="l-Un0ipi48CfvVv5jZcX-117" value="" style="endArrow=classic;startArrow=classic;html=1;rounded=0;" parent="1" target="l-Un0ipi48CfvVv5jZcX-17" edge="1">
          <mxGeometry width="50" height="50" relative="1" as="geometry">
            <mxPoint x="119" y="460" as="sourcePoint" />
            <mxPoint x="169" y="460.5" as="targetPoint" />
          </mxGeometry>
        </mxCell>
        <mxCell id="0ySspVsRNylLOWJ_9D-f-20" value="" style="endArrow=none;html=1;rounded=0;" parent="1" edge="1">
          <mxGeometry width="50" height="50" relative="1" as="geometry">
            <mxPoint x="830" y="1490" as="sourcePoint" />
            <mxPoint x="830" y="120" as="targetPoint" />
          </mxGeometry>
        </mxCell>
        <mxCell id="0ySspVsRNylLOWJ_9D-f-24" value="" style="endArrow=classic;html=1;rounded=0;" parent="1" edge="1">
          <mxGeometry width="50" height="50" relative="1" as="geometry">
            <mxPoint x="830" y="318" as="sourcePoint" />
            <mxPoint x="924" y="318" as="targetPoint" />
          </mxGeometry>
        </mxCell>
        <mxCell id="0ySspVsRNylLOWJ_9D-f-25" value="" style="endArrow=classic;html=1;rounded=0;" parent="1" edge="1">
          <mxGeometry width="50" height="50" relative="1" as="geometry">
            <mxPoint x="830" y="561" as="sourcePoint" />
            <mxPoint x="924" y="561" as="targetPoint" />
          </mxGeometry>
        </mxCell>
        <mxCell id="0ySspVsRNylLOWJ_9D-f-26" value="" style="endArrow=classic;html=1;rounded=0;" parent="1" edge="1">
          <mxGeometry width="50" height="50" relative="1" as="geometry">
            <mxPoint x="829" y="800" as="sourcePoint" />
            <mxPoint x="910" y="800" as="targetPoint" />
          </mxGeometry>
        </mxCell>
        <mxCell id="0ySspVsRNylLOWJ_9D-f-27" value="" style="endArrow=classic;html=1;rounded=0;" parent="1" edge="1">
          <mxGeometry width="50" height="50" relative="1" as="geometry">
            <mxPoint x="829" y="1023" as="sourcePoint" />
            <mxPoint x="910" y="1023" as="targetPoint" />
          </mxGeometry>
        </mxCell>
        <mxCell id="0ySspVsRNylLOWJ_9D-f-28" value="" style="endArrow=classic;html=1;rounded=0;" parent="1" edge="1">
          <mxGeometry width="50" height="50" relative="1" as="geometry">
            <mxPoint x="831" y="1241" as="sourcePoint" />
            <mxPoint x="900" y="1240" as="targetPoint" />
          </mxGeometry>
        </mxCell>
        <mxCell id="0ySspVsRNylLOWJ_9D-f-29" value="" style="endArrow=classic;html=1;rounded=0;" parent="1" edge="1">
          <mxGeometry width="50" height="50" relative="1" as="geometry">
            <mxPoint x="831" y="1489" as="sourcePoint" />
            <mxPoint x="900" y="1489" as="targetPoint" />
          </mxGeometry>
        </mxCell>
      </root>
    </mxGraphModel>
  </diagram>
</mxfile>
